# xmcd
#
# Track frame offsets:
#	150
#	20180
#	38914
#	55442
#	76274
#	96490
#	108185
#	125440
#	142598
#	172941
#	187029
#	206372
#	218350
#	237572
#	259329
#	275858
#	292044
#	311510
#
# Disc length: 4461 seconds
# Revision: 0
# Processed by: cddbd v1.5.2PL0 Copyright (c) Steve Scherf et al.
# Submitted via: dBpowerAMP V12.0
#
DISCID=0c116b12
DTITLE=Various Artist - Greatest Rock [Disc 2 of 3]
DYEAR=2000
DGENRE=Rock/Pop
TTITLE0=Deep Purple - Hush
TTITLE1=UFO - Only You Can Rock Me
TTITLE2=Ted Nugent - Cat Scratch Fever
TTITLE3=Saxon - Strong Arm of the Law
TTITLE4=Alice Cooper - Poison
TTITLE5=Judas Priest - Breaking the Law
TTITLE6=Thunder - Gimme Some Lovin'
TTITLE7=Poison - Unskinny Bop
TTITLE8=Argent - God Gave Rock and Roll to You
TTITLE9=Hanoi Rocks - Up Around the Bend
TTITLE10=Gary Moore and Phil Lynott - Out in the Fields
TTITLE11=Gillan - New Orleans
TTITLE12=Motorhead - I Ain't No Nice Guy
TTITLE13=Quiet Riot - Cum on Feel the Noize
TTITLE14=Hawkwind - Urban Guerilla
TTITLE15=The Gun - Race With the Devil
TTITLE16=Bad English - When I See You Smile
TTITLE17=Meat Loaf - Rock and Roll Dreams Come Through
EXTD=
EXTT0=
EXTT1=
EXTT2=
EXTT3=
EXTT4=
EXTT5=
EXTT6=
EXTT7=
EXTT8=
EXTT9=
EXTT10=
EXTT11=
EXTT12=
EXTT13=
EXTT14=
EXTT15=
EXTT16=
EXTT17=
PLAYORDER=
